<?xml version="1.0" encoding="utf-8"?>
<!-- Generator: Adobe Illustrator 19.2.1, SVG Export Plug-In . SVG Version: 6.00 Build 0)  -->
<svg version="1.1" id="Layer_1" xmlns="http://www.w3.org/2000/svg" xmlns:xlink="http://www.w3.org/1999/xlink" x="0px" y="0px"
	 viewBox="0 0 435.5 298.7" style="enable-background:new 0 0 435.5 298.7;" xml:space="preserve">
<style type="text/css">
	.st0{clip-path:url(#SVGID_2_);}
	.st1{clip-path:url(#SVGID_4_);enable-background:new    ;}
	.st2{clip-path:url(#SVGID_6_);}
	.st3{clip-path:url(#SVGID_8_);fill:none;stroke:#FFFFFF;stroke-width:4;stroke-linecap:square;stroke-miterlimit:10;}
	.st4{clip-path:url(#SVGID_10_);}
	.st5{clip-path:url(#SVGID_12_);enable-background:new    ;}
	.st6{clip-path:url(#SVGID_14_);}
	.st7{clip-path:url(#SVGID_16_);fill:none;stroke:#FFFFFF;stroke-width:4;stroke-linecap:square;stroke-miterlimit:10;}
</style>
<g>
	<defs>
		<polygon id="SVGID_1_" points="416.7,149.2 226.9,6.2 226.9,9.7 221.4,6.2 221.4,292.2 226.9,288.6 226.9,292.2 		"/>
	</defs>
	<clipPath id="SVGID_2_">
		<use xlink:href="#SVGID_1_"  style="overflow:visible;"/>
	</clipPath>
	<g class="st0">
		<defs>
			<rect id="SVGID_3_" x="-136.2" y="-434.8" width="1366" height="1024"/>
		</defs>
		<clipPath id="SVGID_4_">
			<use xlink:href="#SVGID_3_"  style="overflow:visible;"/>
		</clipPath>
		<g class="st1">
			<g>
				<defs>
					<rect id="SVGID_5_" x="220.8" y="8.2" width="196" height="283"/>
				</defs>
				<clipPath id="SVGID_6_">
					<use xlink:href="#SVGID_5_"  style="overflow:visible;"/>
				</clipPath>
				<g class="st2">
					<defs>
						<rect id="SVGID_7_" x="220.8" y="8.2" width="196" height="283"/>
					</defs>
					<clipPath id="SVGID_8_">
						<use xlink:href="#SVGID_7_"  style="overflow:visible;"/>
					</clipPath>
					<line class="st3" x1="132.3" y1="159.2" x2="536.3" y2="159.2"/>
					<line class="st3" x1="132.3" y1="10.2" x2="536.3" y2="10.2"/>
					<line class="st3" x1="132.3" y1="169.2" x2="536.3" y2="169.2"/>
					<line class="st3" x1="132.3" y1="20.2" x2="536.3" y2="20.2"/>
					<line class="st3" x1="132.3" y1="179.2" x2="536.3" y2="179.2"/>
					<line class="st3" x1="132.3" y1="30.2" x2="536.3" y2="30.2"/>
					<line class="st3" x1="132.3" y1="189.2" x2="536.3" y2="189.2"/>
					<line class="st3" x1="132.3" y1="40.2" x2="536.3" y2="40.2"/>
					<line class="st3" x1="132.3" y1="199.2" x2="536.3" y2="199.2"/>
					<line class="st3" x1="132.3" y1="50.2" x2="536.3" y2="50.2"/>
					<line class="st3" x1="132.3" y1="209.2" x2="536.3" y2="209.2"/>
					<line class="st3" x1="132.3" y1="60.2" x2="536.3" y2="60.2"/>
					<line class="st3" x1="132.3" y1="219.2" x2="536.3" y2="219.2"/>
					<line class="st3" x1="132.3" y1="70.2" x2="536.3" y2="70.2"/>
					<line class="st3" x1="132.3" y1="229.2" x2="536.3" y2="229.2"/>
					<line class="st3" x1="132.3" y1="80.2" x2="536.3" y2="80.2"/>
					<line class="st3" x1="132.3" y1="239.2" x2="536.3" y2="239.2"/>
					<line class="st3" x1="132.3" y1="90.2" x2="536.3" y2="90.2"/>
					<line class="st3" x1="132.3" y1="249.2" x2="536.3" y2="249.2"/>
					<line class="st3" x1="132.3" y1="100.2" x2="536.3" y2="100.2"/>
					<line class="st3" x1="132.3" y1="259.2" x2="536.3" y2="259.2"/>
					<line class="st3" x1="132.3" y1="110.2" x2="536.3" y2="110.2"/>
					<line class="st3" x1="132.3" y1="269.2" x2="536.3" y2="269.2"/>
					<line class="st3" x1="132.3" y1="120.2" x2="536.3" y2="120.2"/>
					<line class="st3" x1="132.3" y1="279.2" x2="536.3" y2="279.2"/>
					<line class="st3" x1="132.3" y1="130.2" x2="536.3" y2="130.2"/>
					<line class="st3" x1="132.3" y1="289.2" x2="536.3" y2="289.2"/>
					<line class="st3" x1="132.3" y1="140.2" x2="536.3" y2="140.2"/>
					<line class="st3" x1="132.3" y1="150.2" x2="536.3" y2="150.2"/>
				</g>
			</g>
		</g>
	</g>
</g>
<g>
	<defs>
		<polygon id="SVGID_9_" points="220.7,149.2 30.9,6.2 30.9,9.7 25.4,6.2 25.4,292.2 30.9,288.6 30.9,292.2 		"/>
	</defs>
	<clipPath id="SVGID_10_">
		<use xlink:href="#SVGID_9_"  style="overflow:visible;"/>
	</clipPath>
	<g class="st4">
		<defs>
			<rect id="SVGID_11_" x="-136.2" y="-434.8" width="1366" height="1024"/>
		</defs>
		<clipPath id="SVGID_12_">
			<use xlink:href="#SVGID_11_"  style="overflow:visible;"/>
		</clipPath>
		<g class="st5">
			<g>
				<defs>
					<rect id="SVGID_13_" x="24.8" y="8.2" width="196" height="283"/>
				</defs>
				<clipPath id="SVGID_14_">
					<use xlink:href="#SVGID_13_"  style="overflow:visible;"/>
				</clipPath>
				<g class="st6">
					<defs>
						<rect id="SVGID_15_" x="24.8" y="8.2" width="196" height="283"/>
					</defs>
					<clipPath id="SVGID_16_">
						<use xlink:href="#SVGID_15_"  style="overflow:visible;"/>
					</clipPath>
					<line class="st7" x1="-63.7" y1="159.2" x2="340.3" y2="159.2"/>
					<line class="st7" x1="-63.7" y1="10.2" x2="340.3" y2="10.2"/>
					<line class="st7" x1="-63.7" y1="169.2" x2="340.3" y2="169.2"/>
					<line class="st7" x1="-63.7" y1="20.2" x2="340.3" y2="20.2"/>
					<line class="st7" x1="-63.7" y1="179.2" x2="340.3" y2="179.2"/>
					<line class="st7" x1="-63.7" y1="30.2" x2="340.3" y2="30.2"/>
					<line class="st7" x1="-63.7" y1="189.2" x2="340.3" y2="189.2"/>
					<line class="st7" x1="-63.7" y1="40.2" x2="340.3" y2="40.2"/>
					<line class="st7" x1="-63.7" y1="199.2" x2="340.3" y2="199.2"/>
					<line class="st7" x1="-63.7" y1="50.2" x2="340.3" y2="50.2"/>
					<line class="st7" x1="-63.7" y1="209.2" x2="340.3" y2="209.2"/>
					<line class="st7" x1="-63.7" y1="60.2" x2="340.3" y2="60.2"/>
					<line class="st7" x1="-63.7" y1="219.2" x2="340.3" y2="219.2"/>
					<line class="st7" x1="-63.7" y1="70.2" x2="340.3" y2="70.2"/>
					<line class="st7" x1="-63.7" y1="229.2" x2="340.3" y2="229.2"/>
					<line class="st7" x1="-63.7" y1="80.2" x2="340.3" y2="80.2"/>
					<line class="st7" x1="-63.7" y1="239.2" x2="340.3" y2="239.2"/>
					<line class="st7" x1="-63.7" y1="90.2" x2="340.3" y2="90.2"/>
					<line class="st7" x1="-63.7" y1="249.2" x2="340.3" y2="249.2"/>
					<line class="st7" x1="-63.7" y1="100.2" x2="340.3" y2="100.2"/>
					<line class="st7" x1="-63.7" y1="259.2" x2="340.3" y2="259.2"/>
					<line class="st7" x1="-63.7" y1="110.2" x2="340.3" y2="110.2"/>
					<line class="st7" x1="-63.7" y1="269.2" x2="340.3" y2="269.2"/>
					<line class="st7" x1="-63.7" y1="120.2" x2="340.3" y2="120.2"/>
					<line class="st7" x1="-63.7" y1="279.2" x2="340.3" y2="279.2"/>
					<line class="st7" x1="-63.7" y1="130.2" x2="340.3" y2="130.2"/>
					<line class="st7" x1="-63.7" y1="289.2" x2="340.3" y2="289.2"/>
					<line class="st7" x1="-63.7" y1="140.2" x2="340.3" y2="140.2"/>
					<line class="st7" x1="-63.7" y1="150.2" x2="340.3" y2="150.2"/>
				</g>
			</g>
		</g>
	</g>
</g>
</svg>
