<?xml version="1.0" encoding="utf-8"?>
<!-- Generator: Adobe Illustrator 19.2.1, SVG Export Plug-In . SVG Version: 6.00 Build 0)  -->
<svg version="1.1" id="Layer_1" xmlns="http://www.w3.org/2000/svg" xmlns:xlink="http://www.w3.org/1999/xlink" x="0px" y="0px"
	 viewBox="0 0 1416.6 1512" style="enable-background:new 0 0 1416.6 1512;" xml:space="preserve">
<style type="text/css">
	.st0{fill-rule:evenodd;clip-rule:evenodd;fill:#FFFFFF;}
</style>
<path class="st0" d="M444.5,817L97,1164.5L444.5,1512L792,1164.5L444.5,817z M443.4,1293.4l-130-130.1l130-130l130,130L443.4,1293.4
	z"/>
<polygon class="st0" points="352.5,242 483.8,109.5 373.4,0 242,132.5 109.5,1.2 0,111.6 132.5,243 1.2,375.5 111.6,485 243,352.5 
	375.5,483.8 485,373.4 "/>
<path class="st0" d="M1367.6,334l-0.5-0.7c-14.8-21.5-40.9-32.1-66.6-27.1c-8.8,1.7-17.1,5.2-24.6,10.3l-21.1,14.4
	c-14.5,9.9-24.2,24.8-27.5,42.1c-3.2,17.4,0.5,35,10.5,49.6l0.2,0.3c38.6,56.6,24,134.1-32.8,172.9c-14.1,9.7-29.7,16.2-46.4,19.4
	c-49,9.5-98.7-10.8-126.9-52c-14.9-21.9-41.2-32.7-67.1-27.7c-8.8,1.7-17,5.1-24.5,10.2l-21.1,14.4c-29.8,20.4-37.7,61.2-17.5,90.9
	l0.6,0.9c63.4,92.7,175.9,138.8,286.5,117.3c37.7-7.3,73-22.1,104.9-43.9C1422.1,637.5,1455.2,462.1,1367.6,334"/>
</svg>
