<?xml version="1.0" encoding="utf-8"?>
<!-- Generator: Adobe Illustrator 19.1.0, SVG Export Plug-In . SVG Version: 6.00 Build 0)  -->
<svg version="1.1" id="Layer_1" xmlns="http://www.w3.org/2000/svg" xmlns:xlink="http://www.w3.org/1999/xlink" x="0px" y="0px"
	 viewBox="0 0 1319.1 1057.2" style="enable-background:new 0 0 1319.1 1057.2;" xml:space="preserve">
<style type="text/css">
	.st0{fill:#FFFFFF;}
</style>
<g>
	<g>
		<path class="st0" d="M126.3,185.2v-1.8L1.5,0h55.8l99,149.2h1.8L258.5,0h52.7L183.2,185.7v1.5l125.3,183.9h-55.6l-98.5-147.9h-1.8
			L52.5,371.2H0L126.3,185.2z"/>
	</g>
	<g>
		<path class="st0" d="M1044.6,659.3l211.7-294.8v-1.8h-204.5V321h262.9v32.9l-210.7,294.8v1.8h215.1v41.7h-274.5V659.3z"/>
	</g>
	<g>
		<path class="st0" d="M446.6,1057.2V897.5L314.9,686h52.7L469,852.7h1.5L571.9,686h52.7L492.9,897.5v159.8H446.6z"/>
	</g>
</g>
</svg>
