<?xml version="1.0" encoding="utf-8"?>
<!-- Generator: Adobe Illustrator 19.2.1, SVG Export Plug-In . SVG Version: 6.00 Build 0)  -->
<svg version="1.1" id="Layer_1" xmlns="http://www.w3.org/2000/svg" xmlns:xlink="http://www.w3.org/1999/xlink" x="0px" y="0px"
	 viewBox="0 0 574.7 76.4" style="enable-background:new 0 0 574.7 76.4;" xml:space="preserve">
<style type="text/css">
	.st0{clip-path:url(#SVGID_2_);}
	.st1{clip-path:url(#SVGID_4_);fill:#FFFFFF;}
	.st2{clip-path:url(#SVGID_6_);}
	.st3{clip-path:url(#SVGID_8_);fill:#FFFFFF;}
	.st4{clip-path:url(#SVGID_10_);}
	.st5{clip-path:url(#SVGID_12_);fill:#FFFFFF;}
	.st6{clip-path:url(#SVGID_14_);}
	.st7{clip-path:url(#SVGID_16_);fill:#4D42E6;}
	.st8{clip-path:url(#SVGID_18_);}
	.st9{clip-path:url(#SVGID_20_);fill:#FFFFFF; animation: shape-clock-turn 299s linear; }

  @keyframes shape-clock-turn {0% {fill: white;} 100% {fill: #4D42E6;} }
</style>
<g>
	<defs>
		<polygon id="SVGID_1_" points="296.5,39.4 310.8,24.9 298.8,13 284.4,27.4 270,13.1 258,25.2 272.5,39.5 258.1,53.9 270.2,65.9
			284.5,51.4 299,65.7 311,53.7 		"/>
	</defs>
	<clipPath id="SVGID_2_">
		<use xlink:href="#SVGID_1_"  style="overflow:visible;"/>
	</clipPath>
	<g class="st0">
		<defs>
			<rect id="SVGID_3_" x="-395" y="-604" width="1366" height="1024"/>
		</defs>
		<clipPath id="SVGID_4_">
			<use xlink:href="#SVGID_3_"  style="overflow:visible;"/>
		</clipPath>
		<rect x="253" y="8" class="st1" width="63" height="62.9"/>
	</g>
</g>
<g>
	<defs>
		<path id="SVGID_5_" d="M434.8,16.8L434.8,16.8c-1.3-3-4.1-4.8-7.3-4.8c-1.1,0-2.1,0.2-3.1,0.6l-2.8,1.2c-1.9,0.8-3.4,2.4-4.2,4.3
			c-0.8,2-0.7,4.1,0.1,6.1l0,0c3.3,7.6-0.2,16.4-7.8,19.6c-1.9,0.8-3.9,1.2-5.9,1.2c-6,0-11.4-3.5-13.8-9c-1.3-2.9-4.1-4.8-7.3-4.8
			c-1.1,0-2.1,0.2-3.1,0.6l-2.8,1.2c-4,1.7-5.8,6.3-4.1,10.3l0,0.1C378,56,390.2,64,403.8,64c4.6,0,9.1-0.9,13.4-2.8
			C434.3,53.8,442.2,33.9,434.8,16.8"/>
	</defs>
	<clipPath id="SVGID_6_">
		<use xlink:href="#SVGID_5_"  style="overflow:visible;"/>
	</clipPath>
	<g class="st2">
		<defs>
			<rect id="SVGID_7_" x="-395" y="-604" width="1366" height="1024"/>
		</defs>
		<clipPath id="SVGID_8_">
			<use xlink:href="#SVGID_7_"  style="overflow:visible;"/>
		</clipPath>
		<rect x="367" y="7" class="st3" width="75.6" height="62"/>
	</g>
</g>
<g>
	<defs>
		<polygon id="SVGID_9_" points="533.9,-1 546.5,24.5 574.7,28.6 554.3,48.4 559.1,76.4 533.9,63.2 508.7,76.4 513.5,48.4
			493.2,28.6 521.3,24.5 		"/>
	</defs>
	<clipPath id="SVGID_10_">
		<use xlink:href="#SVGID_9_"  style="overflow:visible;"/>
	</clipPath>
	<g class="st4">
		<defs>
			<rect id="SVGID_11_" x="-395" y="-604" width="1366" height="1024"/>
		</defs>
		<clipPath id="SVGID_12_">
			<use xlink:href="#SVGID_11_"  style="overflow:visible;"/>
		</clipPath>
		<rect x="488.2" y="-6" class="st5" width="91.5" height="87.4"/>
	</g>
</g>
<g>
	<defs>
		<path id="SVGID_13_" d="M38.2,76.3L0,38.1L38.2,0l38.2,38.1L38.2,76.3z M19.5,38.1l18.8,18.7L57,38.1L38.2,19.4L19.5,38.1z"/>
	</defs>
	<clipPath id="SVGID_14_">
		<use xlink:href="#SVGID_13_"  style="overflow:visible;"/>
	</clipPath>
	<g class="st6">
		<defs>
			<rect id="SVGID_15_" x="-395" y="-604" width="1366" height="1024"/>
		</defs>
		<clipPath id="SVGID_16_">
			<use xlink:href="#SVGID_15_"  style="overflow:visible;"/>
		</clipPath>
		<rect x="-5" y="-5" class="st7" width="86.4" height="86.3"/>
	</g>
</g>
<g>
	<defs>
		<path id="SVGID_17_" d="M147.1,64.6c-4.9,0-9.8-2.4-12.7-6.9c-4.5-7-2.5-16.3,4.5-20.8l33.3-21.5c7-4.5,16.3-2.5,20.8,4.5
			c4.5,7,2.5,16.3-4.5,20.8l-33.3,21.5C152.8,63.8,149.9,64.6,147.1,64.6"/>
	</defs>
	<clipPath id="SVGID_18_">
		<use xlink:href="#SVGID_17_"  style="overflow:visible;"/>
	</clipPath>
	<g class="st8">
		<defs>
			<rect id="SVGID_19_" x="-395" y="-604" width="1366" height="1024"/>
		</defs>
		<clipPath id="SVGID_20_">
			<use xlink:href="#SVGID_19_"  style="overflow:visible;"/>
		</clipPath>
		<rect x="127.1" y="8.1" class="st9" width="73.4" height="61.5"/>
	</g>
</g>
</svg>
