<?xml version="1.0" encoding="utf-8"?>
<!-- Generator: Adobe Illustrator 19.2.1, SVG Export Plug-In . SVG Version: 6.00 Build 0)  -->
<svg version="1.1" id="Layer_1" xmlns="http://www.w3.org/2000/svg" xmlns:xlink="http://www.w3.org/1999/xlink" x="0px" y="0px"
	 viewBox="0 0 95.9 35.6" style="enable-background:new 0 0 95.9 35.6;" xml:space="preserve">
<style type="text/css">
	.st0{clip-path:url(#SVGID_1_);}
	.st1{clip-path:url(#SVGID_2_);fill:#FFFFFF;}
	.st2{clip-path:url(#SVGID_3_);}
	.st3{clip-path:url(#SVGID_4_);fill:#FFFFFF;}
	.st4{clip-path:url(#SVGID_5_);}
	.st5{clip-path:url(#SVGID_6_);fill:#FFFFFF;}
</style>
<g>
	<defs>
		<polygon id="SVGID_13_" points="21.5,17.8 25.1,14.1 22.1,11.1 18.5,14.7 14.8,11.1 11.8,14.2 15.5,17.8 11.8,21.5 14.9,24.5 
			18.5,20.8 22.2,24.5 25.2,21.4 		"/>
	</defs>
	<clipPath id="SVGID_1_">
		<use xlink:href="#SVGID_13_"  style="overflow:visible;"/>
	</clipPath>
	<g class="st0">
		<defs>
			<rect id="SVGID_15_" x="-878.2" y="-316.9" width="1366" height="978"/>
		</defs>
		<clipPath id="SVGID_2_">
			<use xlink:href="#SVGID_15_"  style="overflow:visible;"/>
		</clipPath>
		<rect x="6.8" y="6.1" class="st1" width="23.4" height="23.4"/>
	</g>
</g>
<g>
	<defs>
		<polygon id="SVGID_17_" points="50.5,17.8 54.1,14.1 51.1,11.1 47.5,14.7 43.8,11.1 40.8,14.2 44.5,17.8 40.8,21.5 43.9,24.5 
			47.5,20.8 51.2,24.5 54.2,21.4 		"/>
	</defs>
	<clipPath id="SVGID_3_">
		<use xlink:href="#SVGID_17_"  style="overflow:visible;"/>
	</clipPath>
	<g class="st2">
		<defs>
			<rect id="SVGID_19_" x="-878.2" y="-316.9" width="1366" height="978"/>
		</defs>
		<clipPath id="SVGID_4_">
			<use xlink:href="#SVGID_19_"  style="overflow:visible;"/>
		</clipPath>
		<rect x="35.8" y="6.1" class="st3" width="23.4" height="23.4"/>
	</g>
</g>
<g>
	<defs>
		<polygon id="SVGID_21_" points="79.5,17.8 83.1,14.1 80.1,11.1 76.5,14.7 72.8,11.1 69.8,14.2 73.5,17.8 69.8,21.5 72.9,24.5 
			76.5,20.8 80.2,24.5 83.2,21.4 		"/>
	</defs>
	<clipPath id="SVGID_5_">
		<use xlink:href="#SVGID_21_"  style="overflow:visible;"/>
	</clipPath>
	<g class="st4">
		<defs>
			<rect id="SVGID_23_" x="-878.2" y="-316.9" width="1366" height="978"/>
		</defs>
		<clipPath id="SVGID_6_">
			<use xlink:href="#SVGID_23_"  style="overflow:visible;"/>
		</clipPath>
		<rect x="64.8" y="6.1" class="st5" width="23.4" height="23.4"/>
	</g>
</g>
</svg>
