<?xml version="1.0" encoding="utf-8"?>
<!-- Generator: Adobe Illustrator 19.2.1, SVG Export Plug-In . SVG Version: 6.00 Build 0)  -->
<svg version="1.1" id="Layer_1" xmlns="http://www.w3.org/2000/svg" xmlns:xlink="http://www.w3.org/1999/xlink" x="0px" y="0px"
	 viewBox="0 0 397.4 402.9" style="enable-background:new 0 0 397.4 402.9;" xml:space="preserve">
<style type="text/css">
	.st0{clip-path:url(#SVGID_2_);}
	.st1{clip-path:url(#SVGID_4_);fill:#FFFFFF;}
	.st2{clip-path:url(#SVGID_6_);}
	.st3{clip-path:url(#SVGID_8_);fill:#FFFFFF;}
	.st4{clip-path:url(#SVGID_10_);}
	.st5{clip-path:url(#SVGID_12_);fill:#FFFFFF;}
	.st6{clip-path:url(#SVGID_14_);}
	.st7{clip-path:url(#SVGID_16_);fill:#FFFFFF;}
	.st8{clip-path:url(#SVGID_18_);}
	.st9{clip-path:url(#SVGID_20_);fill:#FFFFFF;}
	.st10{clip-path:url(#SVGID_22_);}
	.st11{clip-path:url(#SVGID_24_);fill:#FFFFFF;}
	.st12{clip-path:url(#SVGID_26_);}
	.st13{clip-path:url(#SVGID_28_);fill:#FFFFFF;}
	.st14{clip-path:url(#SVGID_30_);}
	.st15{clip-path:url(#SVGID_32_);fill:#FFFFFF;}
	.st16{clip-path:url(#SVGID_34_);}
	.st17{clip-path:url(#SVGID_36_);fill:#FFFFFF;}
	.st18{clip-path:url(#SVGID_38_);}
	.st19{clip-path:url(#SVGID_40_);fill:#FFFFFF;}
	.st20{clip-path:url(#SVGID_42_);}
	.st21{clip-path:url(#SVGID_44_);fill:#FFFFFF;}
	.st22{clip-path:url(#SVGID_46_);}
	.st23{clip-path:url(#SVGID_48_);fill:#FFFFFF;}
</style>
<g>
	<defs>
		<path id="SVGID_1_" d="M349.5,340.7L322,313.3l27.5-27.5l27.5,27.5L349.5,340.7z M336,313.3l13.5,13.5l13.5-13.5l-13.5-13.5
			L336,313.3z"/>
	</defs>
	<clipPath id="SVGID_2_">
		<use xlink:href="#SVGID_1_"  style="overflow:visible;"/>
	</clipPath>
	<g class="st0">
		<defs>
			<rect id="SVGID_3_" x="-523" y="-281.2" width="1366" height="1024"/>
		</defs>
		<clipPath id="SVGID_4_">
			<use xlink:href="#SVGID_3_"  style="overflow:visible;"/>
		</clipPath>
		<rect x="317" y="280.8" class="st1" width="65" height="65"/>
	</g>
</g>
<g>
	<defs>
		<polygon id="SVGID_5_" points="186.3,0 195.4,18.4 215.7,21.3 201,35.6 204.5,55.8 186.3,46.2 168.2,55.8 171.7,35.6 157,21.3 
			177.3,18.4 		"/>
	</defs>
	<clipPath id="SVGID_6_">
		<use xlink:href="#SVGID_5_"  style="overflow:visible;"/>
	</clipPath>
	<g class="st2">
		<defs>
			<rect id="SVGID_7_" x="-523" y="-281.2" width="1366" height="1024"/>
		</defs>
		<clipPath id="SVGID_8_">
			<use xlink:href="#SVGID_7_"  style="overflow:visible;"/>
		</clipPath>
		<rect x="152" y="-5" class="st3" width="68.7" height="65.8"/>
	</g>
</g>
<g>
	<defs>
		<path id="SVGID_9_" d="M110.9,53.2c0,6.3-5.1,11.5-11.5,11.5c-6.3,0-11.5-5.1-11.5-11.5c0-6.3,5.1-11.5,11.5-11.5
			C105.8,41.8,110.9,46.9,110.9,53.2"/>
	</defs>
	<clipPath id="SVGID_10_">
		<use xlink:href="#SVGID_9_"  style="overflow:visible;"/>
	</clipPath>
	<g class="st4">
		<defs>
			<rect id="SVGID_11_" x="-523" y="-281.2" width="1366" height="1024"/>
		</defs>
		<clipPath id="SVGID_12_">
			<use xlink:href="#SVGID_11_"  style="overflow:visible;"/>
		</clipPath>
		<rect x="83" y="36.8" class="st5" width="32.9" height="32.9"/>
	</g>
</g>
<g>
	<defs>
		<path id="SVGID_13_" d="M46.9,115.2c0,6.3-5.1,11.5-11.5,11.5c-6.3,0-11.5-5.1-11.5-11.5c0-6.3,5.1-11.5,11.5-11.5
			C41.8,103.8,46.9,108.9,46.9,115.2"/>
	</defs>
	<clipPath id="SVGID_14_">
		<use xlink:href="#SVGID_13_"  style="overflow:visible;"/>
	</clipPath>
	<g class="st6">
		<defs>
			<rect id="SVGID_15_" x="-523" y="-281.2" width="1366" height="1024"/>
		</defs>
		<clipPath id="SVGID_16_">
			<use xlink:href="#SVGID_15_"  style="overflow:visible;"/>
		</clipPath>
		<rect x="19" y="98.8" class="st7" width="32.9" height="32.9"/>
	</g>
</g>
<g>
	<defs>
		<path id="SVGID_17_" d="M22.9,207.2c0,6.3-5.1,11.5-11.5,11.5c-6.3,0-11.5-5.1-11.5-11.5c0-6.3,5.1-11.5,11.5-11.5
			C17.8,195.8,22.9,200.9,22.9,207.2"/>
	</defs>
	<clipPath id="SVGID_18_">
		<use xlink:href="#SVGID_17_"  style="overflow:visible;"/>
	</clipPath>
	<g class="st8">
		<defs>
			<rect id="SVGID_19_" x="-523" y="-281.2" width="1366" height="1024"/>
		</defs>
		<clipPath id="SVGID_20_">
			<use xlink:href="#SVGID_19_"  style="overflow:visible;"/>
		</clipPath>
		<rect x="-5" y="190.8" class="st9" width="32.9" height="32.9"/>
	</g>
</g>
<g>
	<defs>
		<path id="SVGID_21_" d="M46.9,302.2c0,6.3-5.1,11.5-11.5,11.5c-6.3,0-11.5-5.1-11.5-11.5s5.1-11.5,11.5-11.5
			C41.8,290.8,46.9,295.9,46.9,302.2"/>
	</defs>
	<clipPath id="SVGID_22_">
		<use xlink:href="#SVGID_21_"  style="overflow:visible;"/>
	</clipPath>
	<g class="st10">
		<defs>
			<rect id="SVGID_23_" x="-523" y="-281.2" width="1366" height="1024"/>
		</defs>
		<clipPath id="SVGID_24_">
			<use xlink:href="#SVGID_23_"  style="overflow:visible;"/>
		</clipPath>
		<rect x="19" y="285.8" class="st11" width="32.9" height="32.9"/>
	</g>
</g>
<g>
	<defs>
		<path id="SVGID_25_" d="M119.9,370.2c0,6.3-5.1,11.5-11.5,11.5c-6.3,0-11.5-5.1-11.5-11.5s5.1-11.5,11.5-11.5
			C114.8,358.8,119.9,363.9,119.9,370.2"/>
	</defs>
	<clipPath id="SVGID_26_">
		<use xlink:href="#SVGID_25_"  style="overflow:visible;"/>
	</clipPath>
	<g class="st12">
		<defs>
			<rect id="SVGID_27_" x="-523" y="-281.2" width="1366" height="1024"/>
		</defs>
		<clipPath id="SVGID_28_">
			<use xlink:href="#SVGID_27_"  style="overflow:visible;"/>
		</clipPath>
		<rect x="92" y="353.8" class="st13" width="32.9" height="32.9"/>
	</g>
</g>
<g>
	<defs>
		<path id="SVGID_29_" d="M206.9,391.4c0,6.3-5.1,11.5-11.5,11.5c-6.3,0-11.5-5.1-11.5-11.5s5.1-11.5,11.5-11.5
			C201.8,379.9,206.9,385.1,206.9,391.4"/>
	</defs>
	<clipPath id="SVGID_30_">
		<use xlink:href="#SVGID_29_"  style="overflow:visible;"/>
	</clipPath>
	<g class="st14">
		<defs>
			<rect id="SVGID_31_" x="-523" y="-281.2" width="1366" height="1024"/>
		</defs>
		<clipPath id="SVGID_32_">
			<use xlink:href="#SVGID_31_"  style="overflow:visible;"/>
		</clipPath>
		<rect x="179" y="374.9" class="st15" width="32.9" height="32.9"/>
	</g>
</g>
<g>
	<defs>
		<path id="SVGID_33_" d="M299.9,370.2c0,6.3-5.1,11.5-11.5,11.5c-6.3,0-11.5-5.1-11.5-11.5s5.1-11.5,11.5-11.5
			C294.8,358.8,299.9,363.9,299.9,370.2"/>
	</defs>
	<clipPath id="SVGID_34_">
		<use xlink:href="#SVGID_33_"  style="overflow:visible;"/>
	</clipPath>
	<g class="st16">
		<defs>
			<rect id="SVGID_35_" x="-523" y="-281.2" width="1366" height="1024"/>
		</defs>
		<clipPath id="SVGID_36_">
			<use xlink:href="#SVGID_35_"  style="overflow:visible;"/>
		</clipPath>
		<rect x="272" y="353.8" class="st17" width="32.9" height="32.9"/>
	</g>
</g>
<g>
	<defs>
		<path id="SVGID_37_" d="M301.2,37.2L301.2,37.2c-0.9-2.1-3-3.5-5.2-3.5c-0.8,0-1.5,0.2-2.3,0.5l-2,0.9c-1.4,0.6-2.5,1.7-3,3.1
			c-0.6,1.4-0.5,3,0.1,4.4l0,0c2.3,5.4-0.2,11.8-5.6,14.1c-1.4,0.6-2.8,0.9-4.3,0.9c-4.3,0-8.2-2.5-9.9-6.5c-0.9-2.1-3-3.5-5.2-3.5
			c-0.8,0-1.5,0.2-2.2,0.5l-2,0.9c-2.9,1.2-4.2,4.6-3,7.4l0,0.1c3.9,8.9,12.6,14.7,22.4,14.7c3.3,0,6.6-0.7,9.6-2
			C300.8,63.9,306.5,49.6,301.2,37.2"/>
	</defs>
	<clipPath id="SVGID_38_">
		<use xlink:href="#SVGID_37_"  style="overflow:visible;"/>
	</clipPath>
	<g class="st18">
		<defs>
			<rect id="SVGID_39_" x="-523" y="-281.2" width="1366" height="1024"/>
		</defs>
		<clipPath id="SVGID_40_">
			<use xlink:href="#SVGID_39_"  style="overflow:visible;"/>
		</clipPath>
		<rect x="251" y="28.8" class="st19" width="57.2" height="47.5"/>
	</g>
</g>
<g>
	<defs>
		<polygon id="SVGID_41_" points="347.7,121.8 358,111.4 349.4,102.8 339,113.2 328.6,102.9 320,111.5 330.4,121.9 320.1,132.3 
			328.8,140.9 339.1,130.5 349.5,140.8 358.1,132.1 		"/>
	</defs>
	<clipPath id="SVGID_42_">
		<use xlink:href="#SVGID_41_"  style="overflow:visible;"/>
	</clipPath>
	<g class="st20">
		<defs>
			<rect id="SVGID_43_" x="-523" y="-281.2" width="1366" height="1024"/>
		</defs>
		<clipPath id="SVGID_44_">
			<use xlink:href="#SVGID_43_"  style="overflow:visible;"/>
		</clipPath>
		<rect x="315" y="97.8" class="st21" width="48.1" height="48.1"/>
	</g>
</g>
<g>
	<defs>
		<path id="SVGID_45_" d="M351.9,230c-3.6,0-7-1.7-9.1-5c-3.2-5-1.8-11.7,3.2-15l24-15.5c5-3.2,11.7-1.8,15,3.2
			c3.2,5,1.8,11.7-3.2,15l-24,15.5C355.9,229.4,353.9,230,351.9,230"/>
	</defs>
	<clipPath id="SVGID_46_">
		<use xlink:href="#SVGID_45_"  style="overflow:visible;"/>
	</clipPath>
	<g class="st22">
		<defs>
			<rect id="SVGID_47_" x="-523" y="-281.2" width="1366" height="1024"/>
		</defs>
		<clipPath id="SVGID_48_">
			<use xlink:href="#SVGID_47_"  style="overflow:visible;"/>
		</clipPath>
		<rect x="336.1" y="187.8" class="st23" width="55.7" height="47.1"/>
	</g>
</g>
</svg>
