<?xml version="1.0" encoding="utf-8"?>
<!-- Generator: Adobe Illustrator 19.1.0, SVG Export Plug-In . SVG Version: 6.00 Build 0)  -->
<svg version="1.1" id="Layer_1" xmlns="http://www.w3.org/2000/svg" xmlns:xlink="http://www.w3.org/1999/xlink" x="0px" y="0px"
	 viewBox="0 0 66 14" style="enable-background:new 0 0 66 14;" xml:space="preserve">
<style type="text/css">
	.st0{fill:#FFFFFF;}
</style>
<g>
	<path class="st0" d="M14,7c0,0.3-0.2,0.5-0.5,0.5h-6v6C7.5,13.8,7.3,14,7,14s-0.5-0.2-0.5-0.5v-6h-6C0.2,7.5,0,7.3,0,7
		c0-0.3,0.2-0.5,0.5-0.5h6v-6C6.5,0.2,6.7,0,7,0s0.5,0.2,0.5,0.5v6h6C13.8,6.5,14,6.7,14,7z"/>
	<path class="st0" d="M40,7c0,0.3-0.2,0.5-0.5,0.5h-6v6c0,0.3-0.2,0.5-0.5,0.5s-0.5-0.2-0.5-0.5v-6h-6C26.2,7.5,26,7.3,26,7
		c0-0.3,0.2-0.5,0.5-0.5h6v-6C32.5,0.2,32.7,0,33,0s0.5,0.2,0.5,0.5v6h6C39.8,6.5,40,6.7,40,7z"/>
	<path class="st0" d="M66,7c0,0.3-0.2,0.5-0.5,0.5h-6v6c0,0.3-0.2,0.5-0.5,0.5s-0.5-0.2-0.5-0.5v-6h-6C52.2,7.5,52,7.3,52,7
		c0-0.3,0.2-0.5,0.5-0.5h6v-6C58.5,0.2,58.7,0,59,0s0.5,0.2,0.5,0.5v6h6C65.8,6.5,66,6.7,66,7z"/>
</g>
</svg>
