<?xml version="1.0" encoding="utf-8"?>
<!-- Generator: Adobe Illustrator 19.2.1, SVG Export Plug-In . SVG Version: 6.00 Build 0)  -->
<svg version="1.1" id="Layer_1" xmlns="http://www.w3.org/2000/svg" xmlns:xlink="http://www.w3.org/1999/xlink" x="0px" y="0px"
	 viewBox="0 0 50.9 61.7" style="enable-background:new 0 0 50.9 61.7;" xml:space="preserve">
<style type="text/css">
	.st0{fill-rule:evenodd;clip-rule:evenodd;fill:#4D42E6;}
</style>
<path class="st0" d="M-487.9-94.9l-27,28l28,27l27-28L-487.9-94.9z M-487.2-54.9l-12.7-12.3l12.3-12.7l12.7,12.3L-487.2-54.9z"/>
<path class="st0" d="M-344.4,52.9c-4.7,3.1-11.1,1.9-14.2-2.8l-15.1-22.2c-1.1-1.7-1.7-3.6-1.7-5.5c0-3.3,1.5-6.6,4.5-8.6
	c4.7-3.1,11.1-1.9,14.2,2.8l15.1,22.2C-338.4,43.5-339.7,49.7-344.4,52.9z"/>
<polygon class="st0" points="-185.7,-61 -194.2,-52.2 -204.8,-62.3 -214.9,-51.7 -223.7,-60.2 -213.6,-70.8 -224.2,-80.9
	-215.7,-89.7 -205.1,-79.6 -195,-90.2 -186.2,-81.7 -196.3,-71.1 "/>
<path class="st0" d="M-54.2-155.4c0,2.3-1.3,4.3-3.3,5.3l-0.1,0c-12.2,5.5-26.7,0.1-32.2-12.1c-1.4-3-2.1-6.3-2.2-9.6
	c-0.2-9.8,5.4-18.6,14.3-22.6l0.1,0c2.8-1.3,6.2,0,7.5,2.9l0.9,2c0.3,0.7,0.5,1.5,0.5,2.2c0,2.3-1.3,4.4-3.4,5.3
	c-3.9,1.8-6.4,5.7-6.3,10c0,1.5,0.4,2.9,1,4.2c2.4,5.4,8.8,7.8,14.2,5.4l0,0c1.4-0.6,3-0.7,4.4-0.1c1.4,0.5,2.5,1.6,3.2,3l0.9,2
	C-54.4-156.9-54.2-156.1-54.2-155.4z"/>
<polygon class="st0" points="50.9,29.8 35.3,37.8 33.1,55.2 20.6,42.9 3.4,46.2 11.3,30.5 2.8,15.1 20.2,17.8 32.2,5 35,22.3 "/>
</svg>
