<?xml version="1.0" encoding="utf-8"?>
<!-- Generator: Adobe Illustrator 19.2.1, SVG Export Plug-In . SVG Version: 6.00 Build 0)  -->
<svg version="1.1" id="Layer_1" xmlns="http://www.w3.org/2000/svg" xmlns:xlink="http://www.w3.org/1999/xlink" x="0px" y="0px"
	 viewBox="0 0 40.3 49" style="enable-background:new 0 0 40.3 49;" xml:space="preserve">
<style type="text/css">
	.st0{fill-rule:evenodd;clip-rule:evenodd;fill:#4D42E6;}
</style>
<path class="st0" d="M-109.9-104.5l-27,28l28,27l27-28L-109.9-104.5z M-109.2-64.5l-12.7-12.3l12.3-12.7l12.7,12.3L-109.2-64.5z"/>
<path class="st0" d="M33.6,43.2c-4.7,3.1-11.1,1.9-14.2-2.8L4.3,18.3c-1.1-1.7-1.7-3.6-1.7-5.5c0-3.3,1.5-6.6,4.5-8.6
	C11.8,1.1,18.2,2.3,21.4,7l15.1,22.2C39.6,33.8,38.3,40.1,33.6,43.2z"/>
<polygon class="st0" points="192.3,-70.7 183.8,-61.8 173.2,-72 163.1,-61.4 154.3,-69.8 164.4,-80.4 153.8,-90.6 162.3,-99.4
	172.9,-89.2 183,-99.9 191.8,-91.4 181.7,-80.8 "/>
<path class="st0" d="M323.8-165c0,2.3-1.3,4.3-3.3,5.3l-0.1,0c-12.2,5.5-26.7,0.1-32.2-12.1c-1.4-3-2.1-6.3-2.2-9.6
	c-0.2-9.8,5.4-18.6,14.3-22.6l0.1,0c2.8-1.3,6.2,0,7.5,2.9l0.9,2c0.3,0.7,0.5,1.5,0.5,2.2c0,2.3-1.3,4.4-3.4,5.3
	c-3.9,1.8-6.4,5.7-6.3,10c0,1.5,0.4,2.9,1,4.2c2.4,5.4,8.8,7.8,14.2,5.4l0,0c1.4-0.6,3-0.7,4.4-0.1c1.4,0.5,2.5,1.6,3.2,3l0.9,2
	C323.6-166.6,323.8-165.8,323.8-165z"/>
<polygon class="st0" points="428.9,20.1 413.3,28.2 411.1,45.6 398.6,33.2 381.4,36.5 389.3,20.8 380.8,5.4 398.2,8.1 410.2,-4.7
	413,12.6 "/>
</svg>
