<?xml version="1.0" encoding="utf-8"?>
<!-- Generator: Adobe Illustrator 19.2.1, SVG Export Plug-In . SVG Version: 6.00 Build 0)  -->
<svg version="1.1" id="Layer_1" xmlns="http://www.w3.org/2000/svg" xmlns:xlink="http://www.w3.org/1999/xlink" x="0px" y="0px"
	 viewBox="0 0 37.8 46.5" style="enable-background:new 0 0 37.8 46.5;" xml:space="preserve">
<style type="text/css">
	.st0{fill-rule:evenodd;clip-rule:evenodd;fill:#4D42E6;}
</style>
<path class="st0" d="M-395.9,99.6l-27,28l28,27l27-28L-395.9,99.6z M-395.2,139.6l-12.7-12.3l12.3-12.7l12.7,12.3L-395.2,139.6z"/>
<path class="st0" d="M-252.4,247.3c-4.7,3.1-11.1,1.9-14.2-2.8l-15.1-22.2c-1.1-1.7-1.7-3.6-1.7-5.5c0-3.3,1.5-6.6,4.5-8.6
	c4.7-3.1,11.1-1.9,14.2,2.8l15.1,22.2C-246.5,237.9-247.7,244.2-252.4,247.3z"/>
<polygon class="st0" points="-93.8,133.5 -102.2,142.3 -112.8,132.1 -123,142.8 -131.8,134.3 -121.7,123.7 -132.2,113.5
	-123.8,104.7 -113.2,114.9 -103.1,104.3 -94.2,112.7 -104.4,123.3 "/>
<path class="st0" d="M37.8,39.1c0,2.3-1.3,4.3-3.3,5.3l-0.1,0C22.1,49.9,7.7,44.5,2.2,32.2c-1.4-3-2.1-6.3-2.2-9.6
	C-0.2,12.9,5.4,4,14.3,0l0.1,0c2.8-1.3,6.2,0,7.5,2.9l0.9,2c0.3,0.7,0.5,1.5,0.5,2.2c0,2.3-1.3,4.4-3.4,5.3c-3.9,1.8-6.4,5.7-6.3,10
	c0,1.5,0.4,2.9,1,4.2C17,32,23.4,34.5,28.8,32l0,0c1.4-0.6,3-0.7,4.4-0.1c1.4,0.5,2.5,1.6,3.2,3l0.9,2
	C37.6,37.5,37.7,38.3,37.8,39.1z"/>
<polygon class="st0" points="142.8,224.2 127.2,232.3 125,249.7 112.5,237.3 95.3,240.6 103.2,224.9 94.8,209.5 112.1,212.2
	124.1,199.4 126.9,216.8 "/>
</svg>
