<?xml version="1.0" encoding="utf-8"?>
<!-- Generator: Adobe Illustrator 19.2.1, SVG Export Plug-In . SVG Version: 6.00 Build 0)  -->
<svg version="1.1" id="Layer_1" xmlns="http://www.w3.org/2000/svg" xmlns:xlink="http://www.w3.org/1999/xlink" x="0px" y="0px"
	 viewBox="0 0 55 55" style="enable-background:new 0 0 55 55;" xml:space="preserve">
<style type="text/css">
	.st0{fill-rule:evenodd;clip-rule:evenodd;fill:#4D42E6;}
</style>
<path class="st0" d="M27,0L0,28l28,27l27-28L27,0z M27.7,40L15,27.7L27.2,15L40,27.3L27.7,40z"/>
<path class="st0" d="M170.5,147.7c-4.7,3.1-11.1,1.9-14.2-2.8l-15.1-22.2c-1.1-1.7-1.7-3.6-1.7-5.5c0-3.3,1.5-6.6,4.5-8.6
	c4.7-3.1,11.1-1.9,14.2,2.8l15.1,22.2C176.4,138.3,175.2,144.6,170.5,147.7z"/>
<polygon class="st0" points="329.1,33.9 320.7,42.7 310.1,32.6 300,43.2 291.1,34.7 301.3,24.1 290.7,14 299.1,5.1 309.7,15.3
	319.9,4.7 328.7,13.1 318.5,23.7 "/>
<path class="st0" d="M460.7-60.5c0,2.3-1.3,4.3-3.3,5.3l-0.1,0c-12.2,5.5-26.7,0.1-32.2-12.1c-1.4-3-2.1-6.3-2.2-9.6
	c-0.2-9.8,5.4-18.6,14.3-22.6l0.1,0c2.8-1.3,6.2,0,7.5,2.9l0.9,2c0.3,0.7,0.5,1.5,0.5,2.2c0,2.3-1.3,4.4-3.4,5.3
	c-3.9,1.8-6.4,5.7-6.3,10c0,1.5,0.4,2.9,1,4.2c2.4,5.4,8.8,7.8,14.2,5.4l0,0c1.4-0.6,3-0.7,4.4-0.1c1.4,0.5,2.5,1.6,3.2,3l0.9,2
	C460.5-62,460.7-61.3,460.7-60.5z"/>
<polygon class="st0" points="565.7,124.7 550.1,132.7 547.9,150.1 535.5,137.8 518.2,141 526.1,125.3 517.7,110 535,112.6 547,99.8
	549.9,117.2 "/>
</svg>
