<?xml version="1.0" encoding="utf-8"?>
<!-- Generator: Adobe Illustrator 19.2.1, SVG Export Plug-In . SVG Version: 6.00 Build 0)  -->
<svg version="1.1" id="Layer_1" xmlns="http://www.w3.org/2000/svg" xmlns:xlink="http://www.w3.org/1999/xlink" x="0px" y="0px"
	 viewBox="0 0 38.5 38" style="enable-background:new 0 0 38.5 38;" xml:space="preserve">
<style type="text/css">
	.st0{fill-rule:evenodd;clip-rule:evenodd;fill:#4D42E6;}
</style>
<path class="st0" d="M-263.7-4.7l-27,28l28,27l27-28L-263.7-4.7z M-263,35.3L-275.7,23l12.3-12.7l12.7,12.3L-263,35.3z"/>
<path class="st0" d="M-120.2,143c-4.7,3.1-11.1,1.9-14.2-2.8l-15.1-22.2c-1.1-1.7-1.7-3.6-1.7-5.5c0-3.3,1.5-6.6,4.5-8.6
	c4.7-3.1,11.1-1.9,14.2,2.8l15.1,22.2C-114.2,133.6-115.5,139.9-120.2,143z"/>
<polygon class="st0" points="38.5,29.2 30,38 19.4,27.9 9.3,38.5 0.5,30 10.6,19.4 0,9.3 8.4,0.5 19,10.6 29.2,0 38,8.5 27.9,19.1
	"/>
<path class="st0" d="M170-65.2c0,2.3-1.3,4.3-3.3,5.3l-0.1,0c-12.2,5.5-26.7,0.1-32.2-12.1c-1.4-3-2.1-6.3-2.2-9.6
	c-0.2-9.8,5.4-18.6,14.3-22.6l0.1,0c2.8-1.3,6.2,0,7.5,2.9l0.9,2c0.3,0.7,0.5,1.5,0.5,2.2c0,2.3-1.3,4.4-3.4,5.3
	c-3.9,1.8-6.4,5.7-6.3,10c0,1.5,0.4,2.9,1,4.2c2.4,5.4,8.8,7.8,14.2,5.4l0,0c1.4-0.6,3-0.7,4.4-0.1c1.4,0.5,2.5,1.6,3.2,3l0.9,2
	C169.8-66.7,170-65.9,170-65.2z"/>
<polygon class="st0" points="275.1,120 259.5,128 257.2,145.4 244.8,133.1 227.6,136.4 235.4,120.7 227,105.3 244.3,108 256.4,95.2
	259.2,112.5 "/>
</svg>
